{"title":"Our.Day.Will.Come.2010.BRRip.Xvid.AC3-Anarchy","uid":6952823,"size":819050628,"categoryP":"video","categoryS":"movies","magnet":"?xt=urn:btih:73da00a951b1aed7a5250608cf8235ffe4d84905&amp;dn=Our.Day.Will.Come.2010.BRRip.Xvid.AC3-Anarchy&amp;tr=udp%3A%2F%2Ftracker.openbittorrent.com%3A80&amp;tr=udp%3A%2F%2Fopen.demonii.com%3A1337&amp;tr=udp%3A%2F%2Ftracker.coppersurfer.tk%3A6969&amp;tr=udp%3A%2F%2Fexodus.desync.com%3A6969","seeders":0,"leechers":1,"uploader":"crazy-torrent","files":3,"time":1326467448,"description":" &lt;a href=&quot; http://www.scenespeeds.com/&quot; rel=&quot;nofollow&quot; target=&quot;_NEW&quot;&gt; http://www.scenespeeds.com/&lt;/a&gt;\n\nDescription\n\nTitle: Our Day Will Come (2010) BRRip Xvid AC3-Anarchy\nGenre: Drama\nLanguage: French\nSubs: English\nSize: 781 MiB\nSource: BluRay x264-METH\nRipper: fasamoo\n\nlinks\n&gt; RT: http://www.rottentomatoes.com/m/notre_jour_viendra/&lt;\n&gt; imdb: http://www.imdb.com/title/tt1651328/&lt;\n&gt; youtube:\n\nPlot\nTwo bitter misfits decide to take out their rage on their world in this\noffbeat drama. Remy (Olivier Barthelemy) is an angry, maladjusted teenager\nwho seems convinced the world looks down on him because he has red hair\nRemy has no friends and a poor relationship with his family, and after a\ndisagreement with his mother (Mathilde Braure) escalates into violence, he\nruns away from home. Remy is seeing a psychiatrist, Patrick (Vincent\nCassel), who is also red-headed and angry about it, and when Patrick\nlearns that Remy has impulsively left home, he decides to run off with\nhim, proposing they to go to Ireland, where redheads are common. As Remy\nand Patrick hit the road, they set off on a crime spree, leaving a trail\nof verbal and physical violence in their wake as they take out their rage\non nearly anyone who isn't like them. However, once they get to Ireland\nthings change very little as Patrick and Remy find they're not as welcome\nas they imagined. Notre Jour Viendra (aka Our Day Will Come) was the first\nfeature film from director Romain Gavras, son of noted filmmaker Costa\nGavras\n\nVideo/Audio\nVideo\nID: 0\nFormat: MPEG-4 Visual\nFormat profile: Advanced Simple@L5\nFormat settings, BVOP: 2\nFormat settings, QPel: No\nFormat settings, GMC: No warppoints\nFormat settings, Matrix: Default (H.263)\nMuxing mode: Packed bitstream\nCodec ID: XVID\nCodec ID/Hint: XviD\nDuration: 1h 23mn\nBit rate: 852 Kbps\nWidth: 720 pixels\nHeight: 304 pixels\nDisplay aspect ratio: 2.35:1\nFrame rate: 25.000 fps\nColor space: YUV\nChroma subsampling: 4:2:0\nBit depth: 8 bits\nScan type: Progressive\nCompression mode: Lossy\nBits/(Pixel*Frame): 0.156\nStream size: 508 MiB (65%)\nWriting library: XviD 1.1.0 (UTC 2005-11-22)\n\nAudio\nID: 1\nFormat: AC-3\nFormat/Info: Audio Coding 3\nMode extension: CM (complete main)\nCodec ID: 2000\nDuration: 1h 23mn\nBit rate mode: Constant\nBit rate: 448 Kbps\nChannel(s): 6 channels\nChannel positions: Front: L C R, Side: L R, LFE\nSampling rate: 48.0 KHz\nBit depth: 16 bits\nCompression mode: Lossy\nStream size: 267 MiB (34%)\nAlignment: Split accross interleaves\nInterleave, duration: 40 ms (1.00 video frame)\nInterleave, preload duration: 500 ms \n  &lt;a href=&quot;\nhttp://www.scenespeeds.com/&quot; rel=&quot;nofollow&quot; target=&quot;_NEW&quot;&gt;\nhttp://www.scenespeeds.com/&lt;/a&gt;\t","torrent":{"xt":"urn:btih:73da00a951b1aed7a5250608cf8235ffe4d84905","amp;dn":"Our.Day.Will.Come.2010.BRRip.Xvid.AC3-Anarchy","amp;tr":["udp%3A%2F%2Ftracker.openbittorrent.com%3A80","udp%3A%2F%2Fopen.demonii.com%3A1337","udp%3A%2F%2Ftracker.coppersurfer.tk%3A6969","udp%3A%2F%2Fexodus.desync.com%3A6969"],"infoHash":"73da00a951b1aed7a5250608cf8235ffe4d84905","infoHashBuffer":{"type":"Buffer","data":[115,218,0,169,81,177,174,215,165,37,6,8,207,130,53,255,228,216,73,5]},"announce":[],"urlList":[]}}